<?xml version="1.0" encoding="UTF-8" standalone="no"?>
<svg
   xmlns:dc="http://purl.org/dc/elements/1.1/"
   xmlns:cc="http://creativecommons.org/ns#"
   xmlns:rdf="http://www.w3.org/1999/02/22-rdf-syntax-ns#"
   xmlns:svg="http://www.w3.org/2000/svg"
   xmlns="http://www.w3.org/2000/svg"
   id="svg8"
   version="1.1"
   viewBox="0 0 18.018 17.992001"
   height="17.992001mm"
   width="18.018mm">
  <defs
     id="defs2" />
  <metadata
     id="metadata5">
    <rdf:RDF>
      <cc:Work
         rdf:about="">
        <dc:format>image/svg+xml</dc:format>
        <dc:type
           rdf:resource="http://purl.org/dc/dcmitype/StillImage" />
        <dc:title></dc:title>
      </cc:Work>
    </rdf:RDF>
  </metadata>
  <g
     transform="translate(0,-279.008)"
     id="layer1">
    <g
       transform="matrix(0.26458333,0,0,0.26458333,-3.7041666,275.30417)"
       id="g12">
      <path
         d="m 48,60 c -6.6,0 -12,-5.4 -12,-12 0,-6.6 5.4,-12 12,-12 6.6,0 12,5.4 12,12 0,6.6 -5.4,12 -12,12 z M 75,40.5 c -0.6,-2.2 -1.5,-4.3 -2.6,-6.2 l 2.5,-7.5 -5.7,-5.7 -7.5,2.5 c -2,-1.1 -4.1,-2 -6.3,-2.6 L 52,14 h -8 l -3.5,7 c -2.2,0.6 -4.3,1.5 -6.2,2.6 l -7.5,-2.5 -5.7,5.7 2.5,7.5 c -1.1,2 -2,4.1 -2.6,6.3 L 14,44 v 8 l 7,3.5 c 0.6,2.2 1.5,4.3 2.6,6.2 l -2.5,7.5 5.7,5.7 7.5,-2.5 c 2,1.1 4.1,2 6.3,2.6 l 3.5,7 h 8 l 3.5,-7 c 2.2,-0.6 4.3,-1.5 6.2,-2.6 l 7.5,2.5 5.7,-5.7 -2.5,-7.5 c 1.1,-2 2,-4.1 2.6,-6.3 l 7,-3.5 v -8 z"
         id="path10" />
    </g>
  </g>
</svg>
