<?xml version="1.0" encoding="UTF-8" standalone="no"?>
<svg
   xmlns:dc="http://purl.org/dc/elements/1.1/"
   xmlns:cc="http://creativecommons.org/ns#"
   xmlns:rdf="http://www.w3.org/1999/02/22-rdf-syntax-ns#"
   xmlns:svg="http://www.w3.org/2000/svg"
   xmlns="http://www.w3.org/2000/svg"
   id="svg8"
   version="1.1"
   viewBox="0 0 21.167 14.817"
   height="14.817mm"
   width="21.167mm">
  <defs
     id="defs2" />
  <metadata
     id="metadata5">
    <rdf:RDF>
      <cc:Work
         rdf:about="">
        <dc:format>image/svg+xml</dc:format>
        <dc:type
           rdf:resource="http://purl.org/dc/dcmitype/StillImage" />
        <dc:title></dc:title>
      </cc:Work>
    </rdf:RDF>
  </metadata>
  <g
     transform="translate(0,-282.183)"
     id="layer1">
    <g
       transform="matrix(0.26458333,0,0,0.26458333,-2.1166666,276.89167)"
       id="g12">
      <path
         d="M 82,38 H 62 V 26 h 20 z m 0,16 H 62 V 42 h 20 z m 0,16 H 62 V 58 H 82 Z M 38,70 V 58 H 58 V 70 Z M 14,70 V 58 H 34 V 70 Z M 14,42 H 34 V 54 H 14 Z M 14,26 H 34 V 38 H 14 Z M 58,42 V 54 H 38 V 42 Z M 58,26 V 38 H 38 V 26 Z M 8,20 V 76 H 88 V 20 Z"
         id="path10" />
    </g>
  </g>
</svg>
