<?xml version="1.0" encoding="UTF-8" standalone="no"?>
<svg
   xmlns:dc="http://purl.org/dc/elements/1.1/"
   xmlns:cc="http://creativecommons.org/ns#"
   xmlns:rdf="http://www.w3.org/1999/02/22-rdf-syntax-ns#"
   xmlns:svg="http://www.w3.org/2000/svg"
   xmlns="http://www.w3.org/2000/svg"
   id="svg8"
   version="1.1"
   viewBox="0 0 21.150999 12.7"
   height="12.7mm"
   width="21.150999mm">
  <defs
     id="defs2" />
  <metadata
     id="metadata5">
    <rdf:RDF>
      <cc:Work
         rdf:about="">
        <dc:format>image/svg+xml</dc:format>
        <dc:type
           rdf:resource="http://purl.org/dc/dcmitype/StillImage" />
        <dc:title></dc:title>
      </cc:Work>
    </rdf:RDF>
  </metadata>
  <g
     transform="translate(0,-284.3)"
     id="layer1">
    <path
       style="stroke-width:0.26458332"
       d="m 14.251844,294.46 c 2.06375,-1.98437 2.16958,-5.26521 0.21166,-7.38187 2.09021,1.08479 3.81,2.75166 4.81542,3.86291 -1.05833,1.03188 -2.8575,2.56646 -5.02708,3.51896 z M 3.8537145,289.00959 c 0.87313,-0.74084 1.79917,-1.37584 2.80458,-1.905 -1.93145,2.11666 -1.82562,5.37104 0.23813,7.35541 -2.16958,-0.9525 -3.99521,-2.48708 -5.02708,-3.51896 0.60854,-0.68791 1.27,-1.32291 1.98437,-1.93145 z m 6.7204195,5.87375 c -2.3283295,0 -4.2333395,-1.905 -4.2333395,-4.23334 0,-2.32833 1.90501,-4.23333 4.2333395,-4.23333 2.32833,0 4.23333,1.905 4.23333,4.23333 0,2.32834 -1.905,4.23334 -4.23333,4.23334 z m 10.29229,-4.68313 C 19.331844,288.40104 15.310174,284.3 10.574134,284.3 c -4.7360395,0 -8.7577095,4.10104 -10.2922895,5.90021 -0.39688,0.47625 -0.37042,1.13771 0.0529,1.5875 1.56104,1.64042 5.55625,5.21229 10.2393795,5.21229 4.68312,0 8.67833,-3.57187 10.26583,-5.21229 0.39688,-0.42333 0.42334,-1.11125 0.0265,-1.5875 z"
       id="path10" />
    <circle
       style="stroke-width:0.26458332"
       cx="10.574138"
       cy="290.64999"
       r="2.6458333"
       id="circle12" />
  </g>
</svg>
